# xmcd CD database file
#
# Track frame offsets:
#	150
#	29046
#	44125
#	57976
#	73372
#	88607
#	103646
#	119007
#	133319
#	146395
#	161493
#	188081
#	200715
#	222168
#
# Disc length: 3257 seconds
#
# Revision: 0
# Processed by: cddbd v1.5.1PL2 Copyright (c) Steve Scherf et al.
# Submitted via: CDex 1.51
#
DISCID=e50cb70e
DTITLE=Various Artist - Jazz Ladies CD5
DYEAR=2005
DGENRE=Jazz
TTITLE0=Bessie Smith - Empty Bed Blues
TTITLE1=Bessie Smith - Chicago round Blues
TTITLE2=Bessie Smith -  Alexanders Ragtime Band
TTITLE3=Bessie Smith - Back Water Blues
TTITLE4=Billie Holiday -  Georgia on my Mind
TTITLE5=Billie Holiday - I cried for you
TTITLE6=Billie Holiday - Love me or leave me
TTITLE7=Billie Holiday - The Man I love
TTITLE8=Ella Fitzgerald  -  Strictly from Dixi
TTITLE9=Ella Fitzgerald - Undecided
TTITLE10=Carol Sloane -  Angel Eyes
TTITLE11=Carol Sloane - My One and Only Love
TTITLE12=Carol Sloane -  The Masquerade is Over
TTITLE13=Carol Sloane - Mr. Magic
EXTD=YEAR: 2005
EXTT0=
EXTT1=
EXTT2=
EXTT3=
EXTT4=
EXTT5=
EXTT6=
EXTT7=
EXTT8=
EXTT9=
EXTT10=
EXTT11=
EXTT12=
EXTT13=
PLAYORDER=
